PathFileType	4	(X/Y/Z)	38_2_89_p0_0-373_filt_butterworth.trc
DataRate	CameraRate	NumFrames	NumMarkers	Units	OrigDataRate	OrigDataStartFrame	OrigNumFrames
40.0	40.0	5	27	m	40.0	279	373
Frame#	Time	RHip			RKnee			RAnkle			RBigToe			RSmallToe			RHeel			LHip			LKnee			LAnkle			LBigToe			LSmallToe			LHeel			Neck			Head			Nose			RShoulder			RElbow			RWrist			RThumb			RIndex			RPinky			LShoulder			LElbow			LWrist			LThumb			LIndex			LPinky			
		X1	Y1	Z1	X2	Y2	Z2	X3	Y3	Z3	X4	Y4	Z4	X5	Y5	Z5	X6	Y6	Z6	X7	Y7	Z7	X8	Y8	Z8	X9	Y9	Z9	X10	Y10	Z10	X11	Y11	Z11	X12	Y12	Z12	X13	Y13	Z13	X14	Y14	Z14	X15	Y15	Z15	X16	Y16	Z16	X17	Y17	Z17	X18	Y18	Z18	X19	Y19	Z19	X20	Y20	Z20	X21	Y21	Z21	X22	Y22	Z22	X23	Y23	Z23	X24	Y24	Z24	X25	Y25	Z25	X26	Y26	Z26	X27	Y27	Z27	
279	6.975	0.38063107941411395	0.7762895743566038	0.5345226421980674	0.391995717562533	0.9088159301086758	0.9619460315844834	0.3517398408535536	1.0966047545141857	1.3748547938055173	0.3213748987683433	0.8867667268458154	1.4283087286358476	0.38377457657000436	0.9184636197092888	1.4381519852247369	0.34652871360311577	1.183141315482103	1.4169825721831468	0.15474988952839416	0.7727993609132667	0.5225279928668465	0.15710504967556105	0.9075276982326348	0.9485048237427424	0.1777958593390103	1.0814990076417852	1.3343124111769924	0.16188330522240052	0.8724657763108088	1.402534523760544	0.10647165976421882	0.9366726567411863	1.4107899253998881	0.21281505282604646	1.175608798893498	1.4108527896346774	0.27335258149794905	0.566045224014347	-0.09011852003136775	0.27433647194766814	0.4571113491649537	-0.3297565091821246	0.2559759695690265	0.4006571130128984	-0.17463488329579385	0.44950898155362384	0.6142748775772853	-0.005348019034583618	0.5214724952212281	0.8039686662992359	0.1924068141768756	0.45454439489278237	0.6825474224089426	0.3703773020466505	0.35715257394415484	0.5402050690953335	0.40417007566224306	0.36197994764306385	0.539853508591141	0.4254737077346875	0.3928373213456757	0.6305057329181952	0.4662812568563038	0.09269651529257278	0.5975117581446925	-0.025347630223627512	0.05501074399468321	0.7902766495989029	0.20771999396708973	0.05193445396633989	0.5283971278217942	0.2327398373446396	0.08858408454100271	0.41389314450432224	0.21423427220253785	0.06874663392881646	0.3862234020447616	0.21804741033908542	0.06429669511353092	0.40591124578294596	0.2637622321641617
280	7.0	0.38050409147408076	0.7778231096926679	0.5357234777546648	0.39213733372288373	0.9091970883758197	0.9620531053106732	0.3517336349407698	1.0965942675683542	1.374853357162603	0.32132403572637297	0.8872678343030185	1.428300755519176	0.38387101782716593	0.9185209056260027	1.4382059003588836	0.3465311050307551	1.1831610748536696	1.4169358851630516	0.1542892767633599	0.7732984406947025	0.5230137443806588	0.1570931697854502	0.9074873267621715	0.948528258387024	0.17785539799682798	1.0811459410954185	1.336628987325942	0.1619435412371512	0.8684182855978497	1.402553400027888	0.10645522104396028	0.9374560108045304	1.411032836002697	0.2120169814295176	1.1790704802041692	1.4121466575358372	0.27407907390547853	0.5620347333867809	-0.08957465073816448	0.27434936647799635	0.45701352568385484	-0.32985954412861324	0.25614090689388275	0.4018345394847901	-0.1738967009839067	0.4503294140965284	0.6166130123034318	-0.0049700863667903016	0.5213302234119268	0.8041723266729451	0.19193840498925296	0.45296839790886756	0.678939401116282	0.36963056484583323	0.35649736716091185	0.5404206950110544	0.3956302013480276	0.3607726629362431	0.5384245016859008	0.4171630315537137	0.3948237947388533	0.6332506827582393	0.4642397935986237	0.09278568503253971	0.5982173487339361	-0.025510123195601864	0.054354544204778255	0.7895141515912936	0.20912270946355915	0.05416277101456761	0.5242347904641957	0.23192700394602428	0.08850941128099321	0.40687766020297045	0.21391800195874308	0.06875919093903082	0.3806598515688538	0.21594935249784647	0.06411109637960627	0.4058165961721099	0.2620207968595214
281	7.025	0.38058515257466974	0.7788278912967624	0.5382211836069398	0.3919602116625028	0.9051346318383038	0.9614912668496658	0.35163830218793124	1.0964196449497203	1.374818464832441	0.3216139688777019	0.8873066034239192	1.4283099039764329	0.38400855710784687	0.9185987149264663	1.4382530833873388	0.3465165172513962	1.1832025359875842	1.4169243815975887	0.15419211493250293	0.7726445660912098	0.5210841437577001	0.15709115622651784	0.907408765771393	0.9484139154478934	0.17781019093714096	1.0810813362472094	1.3374314083452699	0.16136743791790328	0.8683289017780665	1.4025858256580785	0.1066914767895223	0.9374388850901618	1.4113535853332548	0.21267349751222736	1.180857421272524	1.413294089438668	0.2741348185971087	0.5620832744745734	-0.08959453691220673	0.2743545952015487	0.4570552485261171	-0.3298122675379557	0.2560788295579872	0.4020616704190757	-0.17363576069032813	0.4496961556635443	0.618227189188198	-0.00571210601993042	0.5210870281955716	0.8042526366889345	0.19440658243043074	0.451213696822283	0.6720205175646817	0.37016492197048856	0.35583180007170157	0.5411120458136751	0.3941004977720317	0.3600541434528121	0.5377584940246952	0.4154938608272669	0.3937962747154317	0.6319837395503054	0.46385509524104906	0.09292676421231555	0.5987733095681997	-0.022607162130350005	0.05446413630641995	0.7928265497221618	0.20990466771842708	0.05991518784037064	0.5331441474723875	0.2359039263289045	0.08936114223773686	0.4023309254094304	0.2210292258582891	0.07046385853245293	0.3664105333757995	0.22319666634606738	0.06634650454397989	0.40771976667656434	0.26831614353323263
282	7.05	0.3821513764053285	0.7741055397200993	0.5388638183298221	0.39056013090778796	0.8990399130617902	0.9618309592495523	0.35160335144695687	1.0963925698037391	1.3748157596512085	0.3216534766976815	0.8873322845621152	1.4283939285296703	0.38400525934224716	0.9186558909028975	1.438307129617245	0.34650662145845856	1.183174535417502	1.4168878713895139	0.15620616935458498	0.7683160744870393	0.5196164584232589	0.15708243969015262	0.9073269559469599	0.948360231518091	0.1777117374414025	1.0813012000312967	1.3373164271285716	0.158195234682651	0.8686210567274563	1.4023250029343002	0.10681912533810192	0.9371339331403332	1.4100993188984199	0.2128204747287506	1.1768916247371344	1.411889894419515	0.27409868039557794	0.5628546479182819	-0.08873904310114296	0.27434386105818165	0.45795688259815703	-0.3280006124497158	0.25588242838894626	0.4030204953179254	-0.17368270844743594	0.44992305457149623	0.6205081996831922	-0.0054819349732168855	0.5215091787322361	0.8046677512628977	0.20083697838713152	0.44944301334556447	0.6647545092365249	0.3702319504127817	0.35389114480332146	0.5416622833358741	0.401815507959325	0.35972190396223425	0.5428130359469847	0.4196539064626712	0.3894351910197277	0.6235987767031661	0.46406597578720843	0.09291762994527955	0.5989423464476573	-0.01857492820066183	0.051592600753269185	0.7847313913560819	0.21097997007446537	0.06562384004115772	0.5426096292587764	0.25116594137999104	0.09497887208788255	0.4005428417965492	0.23681974422134666	0.07468135462255067	0.35106478329356194	0.24228853561038516	0.07241098162254805	0.41145152675497376	0.28849493134263593
283	7.075	0.3850136444854691	0.766194254378483	0.5387936335641605	0.388318735157046	0.8965871756977981	0.9650112036615268	0.35167117967565653	1.0964074674728759	1.3748218180793792	0.3215742036883274	0.8874477922897563	1.4285107488585929	0.38390460746597804	0.918747596940543	1.4383598606994243	0.3465074433755203	1.1831357366379944	1.4168722140449062	0.15992948657085826	0.7601771569896649	0.5209707008332891	0.15707260302128034	0.9072711563961408	0.9484712328963814	0.17770094555943466	1.0812048035054562	1.3371767531111867	0.15577984043044735	0.8679556277863318	1.4010537868781208	0.10699497897458439	0.9369126663513057	1.406734568583738	0.21033761469027962	1.1684531680839612	1.409053854651661	0.27425499775901463	0.5631352582175303	-0.08568335246198697	0.2744778376792751	0.45845193207528245	-0.3245864631254128	0.2570522656154498	0.40625979468135087	-0.1719117457940807	0.4522906971175818	0.6232028008076362	-0.0015917154528926115	0.5232154156257242	0.8062807032808699	0.21528613198734303	0.44552991989696045	0.6551476914901078	0.37007935378460677	0.34725629399754737	0.5410140268960255	0.41232417096492074	0.3591673510512662	0.541585229024735	0.43070836717601596	0.38140703458082215	0.6040602213590182	0.4656333890629758	0.0931100067240726	0.5996110332514062	-0.014653428474093635	0.043004354488378	0.7636410994997014	0.21005900960751675	0.0673487869037175	0.5471901513082993	0.2795717269147341	0.10660103842044476	0.40575353107675666	0.2701059744390222	0.08433136287910797	0.35275541621699147	0.28033474142629955	0.08157263726841862	0.42240127418875223	0.32814078404776226
